<?xml version="1.0" encoding="UTF-8"?><svg xmlns="http://www.w3.org/2000/svg" viewBox="0 0 396 288"><defs><style>.b{opacity:.2;}.b,.c{mix-blend-mode:multiply;}.d{isolation:isolate;}.e{fill:#1d7c35;}.f{opacity:.1;}</style></defs><g class="d"><g id="a"><g class="f"><g><g class="c"><g><g><path class="e" d="M237.65,74.53l-.04-.02-19.34-11.16v-22.38l.04-.02,19.34-11.16,.04,.02,19.34,11.16v22.38l-.04,.02-19.34,11.16Zm-19.21-11.29l19.21,11.09,19.21-11.09v-22.18l-19.21-11.09-19.21,11.09v22.18Z"/><path class="e" d="M276.24,74.53l-.04-.02-19.34-11.16v-22.38l.04-.02,19.34-11.16,.04,.02,19.34,11.16v22.38l-.04,.02-19.34,11.16Zm-19.21-11.29l19.21,11.09,19.21-11.09v-22.18l-19.21-11.09-19.21,11.09v22.18Z"/><path class="e" d="M314.83,74.53l-.04-.02-19.34-11.16v-22.38l.04-.02,19.34-11.16,.04,.02,19.34,11.16v22.38l-.04,.02-19.34,11.16Zm-19.21-11.29l19.21,11.09,19.21-11.09v-22.18l-19.21-11.09-19.21,11.09v22.18Z"/><path class="e" d="M353.42,74.53l-.04-.02-19.34-11.16v-22.38l.04-.02,19.34-11.16,.04,.02,19.34,11.16v22.38l-.04,.02-19.34,11.16Zm-19.21-11.29l19.21,11.09,19.21-11.09v-22.18l-19.21-11.09-19.21,11.09v22.18Z"/><polygon class="e" points="396.75 71.6 392.01 74.33 372.8 63.24 372.8 41.06 392.01 29.97 396.75 32.7 396.75 32.51 392.05 29.8 392.01 29.77 372.67 40.94 372.63 40.96 372.63 63.34 391.97 74.5 392.01 74.53 396.75 71.79 396.75 71.6"/><path class="e" d="M256.94,107.95l-.04-.02-19.34-11.16v-22.38l.04-.02,19.34-11.16,.04,.02,19.34,11.16v22.38l-.04,.02-19.34,11.16Zm-19.21-11.29l19.21,11.09,19.21-11.09v-22.18l-19.21-11.09-19.21,11.09v22.18Z"/><path class="e" d="M295.53,107.95l-.04-.02-19.34-11.16v-22.38l.04-.02,19.34-11.16,.04,.02,19.34,11.16v22.38l-.04,.02-19.34,11.16Zm-19.21-11.29l19.21,11.09,19.21-11.09v-22.18l-19.21-11.09-19.21,11.09v22.18Z"/><path class="e" d="M334.13,107.95l-.04-.02-19.34-11.16v-22.38l.04-.02,19.34-11.16,.04,.02,19.34,11.16v22.38l-.04,.02-19.34,11.16Zm-19.21-11.29l19.21,11.09,19.21-11.09v-22.18l-19.21-11.09-19.21,11.09v22.18Z"/><path class="e" d="M372.72,107.95l-.04-.02-19.34-11.16v-22.38l.04-.02,19.34-11.16,.04,.02,19.34,11.16v22.38l-.04,.02-19.34,11.16Zm-19.21-11.29l19.21,11.09,19.21-11.09v-22.18l-19.21-11.09-19.21,11.09v22.18Z"/><polygon class="e" points="396.75 99.35 392.1 96.66 392.1 74.48 396.75 71.79 396.75 71.6 391.97 74.36 391.93 74.38 391.93 96.76 396.75 99.54 396.75 99.35"/><path class="e" d="M314.83,141.37l-.04-.02-19.34-11.16v-22.38l.04-.02,19.34-11.16,.04,.02,19.34,11.16v22.38l-.04,.02-19.34,11.16Zm-19.21-11.29l19.21,11.09,19.21-11.09v-22.18l-19.21-11.09-19.21,11.09v22.18Z"/><path class="e" d="M353.42,141.37l-.04-.02-19.34-11.16v-22.38l.04-.02,19.34-11.16,.04,.02,19.34,11.16v22.38l-.04,.02-19.34,11.16Zm-19.21-11.29l19.21,11.09,19.21-11.09v-22.18l-19.21-11.09-19.21,11.09v22.18Z"/><polygon class="e" points="396.75 138.44 392.01 141.18 372.8 130.08 372.8 107.9 392.01 96.81 396.75 99.54 396.75 99.35 392.05 96.64 392.01 96.61 372.67 107.78 372.63 107.8 372.63 130.18 391.97 141.35 392.01 141.37 396.75 138.63 396.75 138.44"/><path class="e" d="M334.13,174.79l-.04-.02-19.34-11.16v-22.38l.04-.02,19.34-11.16,.04,.02,19.34,11.16v22.38l-.04,.02-19.34,11.16Zm-19.21-11.29l19.21,11.09,19.21-11.09v-22.18l-19.21-11.09-19.21,11.09v22.18Z"/><path class="e" d="M372.72,174.79l-.04-.02-19.34-11.16v-22.38l.04-.02,19.34-11.16,.04,.02,19.34,11.16v22.38l-.04,.02-19.34,11.16Zm-19.21-11.29l19.21,11.09,19.21-11.09v-22.18l-19.21-11.09-19.21,11.09v22.18Z"/><polygon class="e" points="396.75 166.19 392.1 163.51 392.1 141.32 396.75 138.63 396.75 138.44 391.97 141.2 391.93 141.22 391.93 163.6 396.75 166.39 396.75 166.19"/><path class="e" d="M353.42,208.21l-.04-.02-19.34-11.16v-22.38l.04-.02,19.34-11.16,.04,.02,19.34,11.16v22.38l-.04,.02-19.34,11.16Zm-19.21-11.29l19.21,11.09,19.21-11.09v-22.18l-19.21-11.09-19.21,11.09v22.18Z"/><polygon class="e" points="396.75 205.28 392.01 208.02 372.8 196.93 372.8 174.74 392.01 163.65 396.75 166.39 396.75 166.19 392.05 163.48 392.01 163.46 372.67 174.62 372.63 174.65 372.63 197.02 391.97 208.19 392.01 208.21 396.75 205.48 396.75 205.28"/><polygon class="e" points="396.75 233.03 392.1 230.35 392.1 208.16 396.75 205.48 396.75 205.28 391.97 208.04 391.93 208.07 391.93 230.44 396.75 233.23 396.75 233.03"/><polygon class="e" points="314.91 287.54 314.91 275.01 334.13 263.91 353.34 275.01 353.34 287.54 353.51 287.54 353.51 274.91 334.17 263.74 334.13 263.72 314.79 274.89 314.75 274.91 314.75 287.54 314.91 287.54"/><polygon class="e" points="353.51 287.54 353.51 275.01 372.72 263.91 391.93 275.01 391.93 287.54 392.1 287.54 392.1 274.91 372.76 263.74 372.72 263.72 353.38 274.89 353.34 274.91 353.34 287.54 353.51 287.54"/></g><g><polygon class="e" points="308.92 -6.04 308.92 12.94 284.21 27.21 259.5 12.94 259.5 -6.04 258.63 -6.04 258.63 13.45 284.21 28.22 309.8 13.45 309.8 -6.04 308.92 -6.04"/><polygon class="e" points="359.22 -6.04 359.22 12.94 334.51 27.21 309.8 12.94 309.8 -6.04 308.92 -6.04 308.92 13.45 334.51 28.22 360.09 13.45 360.09 -6.04 359.22 -6.04"/><polygon class="e" points="360.09 12.94 360.09 -6.04 359.22 -6.04 359.22 13.45 384.8 28.22 396.75 21.32 396.75 20.31 384.8 27.21 360.09 12.94"/><path class="e" d="M309.36,71.77l-25.58-14.77V27.46l25.58-14.77,25.58,14.77v29.54l-25.58,14.77Zm-24.71-15.28l24.71,14.27,24.71-14.27V27.96l-24.71-14.27-24.71,14.27v28.53Z"/><path class="e" d="M359.65,71.77l-25.58-14.77V27.46l25.58-14.77,25.58,14.77v29.54l-25.58,14.77Zm-24.71-15.28l24.71,14.27,24.71-14.27V27.96l-24.71-14.27-24.71,14.27v28.53Z"/><polygon class="e" points="396.75 63.14 385.24 56.5 385.24 27.96 396.75 21.32 396.75 20.31 384.36 27.46 384.36 57 396.75 64.15 396.75 63.14"/><path class="e" d="M334.51,115.33l-25.58-14.77v-29.54l25.58-14.77,25.58,14.77v29.54l-25.58,14.77Zm-24.71-15.28l24.71,14.27,24.71-14.27v-28.53l-24.71-14.27-24.71,14.27v28.53Z"/><polygon class="e" points="396.75 107.42 384.8 114.32 360.09 100.06 360.09 71.52 384.8 57.25 396.75 64.15 396.75 63.14 384.8 56.25 359.22 71.02 359.22 100.56 384.8 115.33 396.75 108.43 396.75 107.42"/><polygon class="e" points="396.75 150.26 385.24 143.61 385.24 115.08 396.75 108.43 396.75 107.42 384.36 114.57 384.36 144.12 396.75 151.27 396.75 150.26"/><path class="e" d="M359.65,246l-25.58-14.77v-29.54l25.58-14.77,25.58,14.77v29.54l-25.58,14.77Zm-24.71-15.28l24.71,14.27,24.71-14.27v-28.53l-24.71-14.27-24.71,14.27v28.53Z"/><polygon class="e" points="332.76 287.54 309.8 274.28 309.8 245.75 334.51 231.48 359.22 245.75 359.22 274.28 336.25 287.54 338 287.54 360.09 274.79 360.09 245.25 334.51 230.47 308.92 245.25 308.92 274.79 331.01 287.54 332.76 287.54"/><g><polygon class="e" points="384.8 231.48 396.75 238.38 396.75 237.37 384.8 230.47 359.22 245.25 359.22 274.79 381.31 287.54 383.06 287.54 360.09 274.28 360.09 245.75 384.8 231.48"/><polygon class="e" points="396.75 281.65 386.55 287.54 388.29 287.54 396.75 282.66 396.75 281.65"/></g><polygon class="e" points="237.41 287.54 259.06 275.04 280.72 287.54 282.47 287.54 259.06 274.03 235.66 287.54 237.41 287.54"/><polygon class="e" points="287.7 287.54 309.36 275.04 331.01 287.54 332.76 287.54 309.36 274.03 285.96 287.54 287.7 287.54"/><polygon class="e" points="338 287.54 359.65 275.04 381.31 287.54 383.06 287.54 359.65 274.03 336.25 287.54 338 287.54"/><polygon class="e" points="396.75 281.65 386.55 287.54 388.29 287.54 396.75 282.66 396.75 281.65"/></g><g><path class="e" d="M199.05,30.1c.13,0,.23-.11,.23-.23s-.11-.23-.23-.23-.23,.11-.23,.23,.11,.23,.23,.23Z"/><path class="e" d="M218.35,38.35c-1.47,0-2.66,1.19-2.66,2.66s1.19,2.66,2.66,2.66,2.66-1.19,2.66-2.66-1.19-2.66-2.66-2.66Z"/><path class="e" d="M218.35,64.96c.92,0,1.67-.75,1.67-1.67s-.75-1.67-1.67-1.67-1.67,.75-1.67,1.67,.75,1.67,1.67,1.67Z"/><path class="e" d="M237.65,75.93c.83,0,1.5-.67,1.5-1.5s-.67-1.5-1.5-1.5-1.5,.67-1.5,1.5,.67,1.5,1.5,1.5Z"/><circle class="e" cx="237.65" cy="29.87" r=".77"/><path class="e" d="M256.94,42.54c.84,0,1.53-.68,1.53-1.53s-.68-1.53-1.53-1.53-1.53,.68-1.53,1.53,.68,1.53,1.53,1.53Z"/><path class="e" d="M256.94,60.61c-1.48,0-2.68,1.2-2.68,2.68s1.2,2.68,2.68,2.68,2.68-1.2,2.68-2.68-1.2-2.68-2.68-2.68Z"/><path class="e" d="M276.24,31c.62,0,1.13-.51,1.13-1.13s-.51-1.13-1.13-1.13-1.13,.51-1.13,1.13,.51,1.13,1.13,1.13Z"/><path class="e" d="M295.53,43.09c1.15,0,2.08-.93,2.08-2.08s-.93-2.08-2.08-2.08-2.08,.93-2.08,2.08,.93,2.08,2.08,2.08Z"/><circle class="e" cx="295.53" cy="63.29" r="2.49"/><path class="e" d="M314.83,31.17c.72,0,1.3-.58,1.3-1.3s-.58-1.3-1.3-1.3-1.3,.58-1.3,1.3,.58,1.3,1.3,1.3Z"/><path class="e" d="M334.13,42.5c.83,0,1.49-.67,1.49-1.49s-.67-1.49-1.49-1.49-1.49,.67-1.49,1.49,.67,1.49,1.49,1.49Z"/><circle class="e" cx="334.13" cy="63.29" r="1.06"/><path class="e" d="M353.42,30.87c.55,0,1-.45,1-1s-.45-1-1-1-1,.45-1,1,.45,1,1,1Z"/><path class="e" d="M372.72,42.59c.87,0,1.58-.71,1.58-1.58s-.71-1.58-1.58-1.58-1.58,.71-1.58,1.58,.71,1.58,1.58,1.58Z"/><circle class="e" cx="372.72" cy="63.29" r="1.8"/><path class="e" d="M392.01,31.38c.83,0,1.51-.68,1.51-1.51s-.68-1.51-1.51-1.51-1.51,.68-1.51,1.51,.68,1.51,1.51,1.51Z"/><path class="e" d="M237.65,98.72c1.11,0,2.01-.9,2.01-2.01s-.9-2.01-2.01-2.01-2.01,.9-2.01,2.01,.9,2.01,2.01,2.01Z"/><path class="e" d="M276.24,73.4c-.57,0-1.03,.46-1.03,1.03s.46,1.03,1.03,1.03,1.03-.46,1.03-1.03-.46-1.03-1.03-1.03Z"/><path class="e" d="M276.24,98.62c1.05,0,1.91-.85,1.91-1.91s-.85-1.91-1.91-1.91-1.91,.85-1.91,1.91,.85,1.91,1.91,1.91Z"/><circle class="e" cx="295.53" cy="107.85" r="1.21"/><path class="e" d="M314.83,71.61c-1.56,0-2.82,1.26-2.82,2.82s1.26,2.82,2.82,2.82,2.82-1.26,2.82-2.82-1.26-2.82-2.82-2.82Z"/><path class="e" d="M353.42,76.52c1.16,0,2.09-.94,2.09-2.09s-.94-2.09-2.09-2.09-2.09,.94-2.09,2.09,.94,2.09,2.09,2.09Z"/><path class="e" d="M372.72,109.94c1.15,0,2.08-.93,2.08-2.08s-.93-2.08-2.08-2.08-2.08,.93-2.08,2.08,.93,2.08,2.08,2.08Z"/><path class="e" d="M353.42,99.17c1.36,0,2.46-1.1,2.46-2.46s-1.1-2.46-2.46-2.46-2.46,1.1-2.46,2.46,1.1,2.46,2.46,2.46Z"/><path class="e" d="M392.01,76.67c1.23,0,2.23-1,2.23-2.24s-1-2.24-2.23-2.24-2.24,1-2.24,2.24,1,2.24,2.24,2.24Z"/><path class="e" d="M258.54,107.85c0-.89-.72-1.6-1.6-1.6s-1.6,.72-1.6,1.6,.72,1.6,1.6,1.6,1.6-.72,1.6-1.6Z"/><circle class="e" cx="314.83" cy="96.71" r="1.29"/><path class="e" d="M334.13,109.24c.76,0,1.38-.62,1.38-1.38s-.62-1.38-1.38-1.38-1.38,.62-1.38,1.38,.62,1.38,1.38,1.38Z"/><circle class="e" cx="392.01" cy="141.27" r="1.37"/><path class="e" d="M372.72,128.35c-.99,0-1.79,.8-1.79,1.79s.8,1.79,1.79,1.79,1.79-.8,1.79-1.79-.8-1.79-1.79-1.79Z"/><circle class="e" cx="392.01" cy="96.71" r="1.71"/><path class="e" d="M295.53,128.07c-1.14,0-2.06,.92-2.06,2.06s.92,2.06,2.06,2.06,2.06-.92,2.06-2.06-.92-2.06-2.06-2.06Z"/><path class="e" d="M312.69,141.27c0,1.18,.96,2.14,2.14,2.14s2.14-.96,2.14-2.14-.96-2.14-2.14-2.14-2.14,.96-2.14,2.14Z"/><circle class="e" cx="334.13" cy="174.69" r="1.29"/><circle class="e" cx="314.83" cy="163.55" r="1.69"/><circle class="e" cx="334.13" cy="130.13" r="1.8"/><circle class="e" cx="353.42" cy="163.55" r="2.55"/><path class="e" d="M372.72,176.14c.8,0,1.44-.65,1.44-1.44s-.65-1.44-1.44-1.44-1.44,.65-1.44,1.44,.65,1.44,1.44,1.44Z"/><path class="e" d="M353.42,143.8c1.4,0,2.53-1.13,2.53-2.53s-1.13-2.53-2.53-2.53-2.53,1.13-2.53,2.53,1.13,2.53,2.53,2.53Z"/><circle class="e" cx="392.01" cy="163.55" r="1.15"/><path class="e" d="M334.13,240.35c-.66,0-1.19,.53-1.19,1.19s.53,1.19,1.19,1.19,1.19-.53,1.19-1.19-.53-1.19-1.19-1.19Z"/><path class="e" d="M334.13,198.36c.77,0,1.39-.62,1.39-1.39s-.62-1.39-1.39-1.39-1.39,.62-1.39,1.39,.62,1.39,1.39,1.39Z"/><path class="e" d="M353.42,205.4c-1.5,0-2.71,1.21-2.71,2.71s1.21,2.71,2.71,2.71,2.71-1.21,2.71-2.71-1.21-2.71-2.71-2.71Z"/><path class="e" d="M372.72,198.45c.81,0,1.48-.66,1.48-1.48s-.66-1.48-1.48-1.48-1.48,.66-1.48,1.48,.66,1.48,1.48,1.48Z"/><path class="e" d="M392.01,210.33c1.22,0,2.21-.99,2.21-2.21s-.99-2.21-2.21-2.21-2.21,.99-2.21,2.21,.99,2.21,2.21,2.21Z"/><path class="e" d="M392.01,227.45c-1.63,0-2.95,1.32-2.95,2.95s1.32,2.95,2.95,2.95,2.95-1.32,2.95-2.95-1.32-2.95-2.95-2.95Z"/><path class="e" d="M335.73,263.82c0-.88-.72-1.6-1.6-1.6s-1.6,.72-1.6,1.6,.72,1.6,1.6,1.6,1.6-.72,1.6-1.6Z"/><path class="e" d="M372.72,243.62c1.15,0,2.09-.93,2.09-2.09s-.93-2.09-2.09-2.09-2.09,.93-2.09,2.09,.93,2.09,2.09,2.09Z"/><path class="e" d="M372.72,261.73c-1.15,0-2.08,.93-2.08,2.08s.93,2.08,2.08,2.08,2.08-.93,2.08-2.08-.93-2.08-2.08-2.08Z"/><path class="e" d="M314.83,276.62c.92,0,1.66-.74,1.66-1.66s-.74-1.66-1.66-1.66-1.66,.74-1.66,1.66,.74,1.66,1.66,1.66Z"/><path class="e" d="M353.42,276.79c1.01,0,1.83-.82,1.83-1.83s-.82-1.83-1.83-1.83-1.83,.82-1.83,1.83,.82,1.83,1.83,1.83Z"/></g></g></g><g class="b"><g><g><polygon class="e" points="254.89 -34.72 254.89 -7.56 227.87 8.04 200.85 -7.56 200.85 -34.72 200.62 -34.72 200.62 -7.42 227.81 8.28 227.87 8.31 255.06 -7.39 255.12 -7.42 255.12 -34.72 254.89 -34.72"/><polygon class="e" points="309.16 -34.72 309.16 -7.56 282.14 8.04 255.12 -7.56 255.12 -34.72 254.89 -34.72 254.89 -7.42 282.08 8.28 282.14 8.31 309.33 -7.39 309.39 -7.42 309.39 -34.72 309.16 -34.72"/><polygon class="e" points="363.43 -34.72 363.43 -7.56 336.41 8.04 309.39 -7.56 309.39 -34.72 309.16 -34.72 309.16 -7.42 336.35 8.28 336.41 8.31 363.6 -7.39 363.66 -7.42 363.66 -34.72 363.43 -34.72"/><polygon class="e" points="363.66 -7.56 363.66 -34.72 363.43 -34.72 363.43 -7.42 390.62 8.28 390.68 8.31 407.85 -1.61 407.85 -1.88 390.68 8.04 363.66 -7.56"/><path class="e" d="M309.27,55.31l-.06-.03-27.19-15.7V8.11l.06-.03,27.19-15.7,.06,.03,27.19,15.7v31.47l-.06,.03-27.19,15.7Zm-27.02-15.87l27.02,15.6,27.02-15.6V8.24l-27.02-15.6-27.02,15.6v31.2Z"/><path class="e" d="M363.54,55.31l-.06-.03-27.19-15.7V8.11l.06-.03,27.19-15.7,.06,.03,27.19,15.7v31.47l-.06,.03-27.19,15.7Zm-27.02-15.87l27.02,15.6,27.02-15.6V8.24l-27.02-15.6-27.02,15.6v31.2Z"/><polygon class="e" points="407.85 49.29 390.79 39.44 390.79 8.24 407.85 -1.61 407.85 -1.88 390.62 8.07 390.56 8.11 390.56 39.57 407.85 49.56 407.85 49.29"/><path class="e" d="M336.41,102.31l-.06-.03-27.19-15.7v-31.47l.06-.03,27.19-15.7,.06,.03,27.19,15.7v31.47l-.06,.03-27.19,15.7Zm-27.02-15.87l27.02,15.6,27.02-15.6v-31.2l-27.02-15.6-27.02,15.6v31.2Z"/><polygon class="e" points="407.85 92.12 390.68 102.03 363.66 86.44 363.66 55.24 390.68 39.64 407.85 49.56 407.85 49.29 390.74 39.4 390.68 39.37 363.48 55.07 363.43 55.1 363.43 86.57 390.62 102.27 390.68 102.31 407.85 92.39 407.85 92.12"/><path class="e" d="M363.54,149.3l-.06-.03-27.19-15.7v-31.47l.06-.03,27.19-15.7,.06,.03,27.19,15.7v31.47l-.06,.03-27.19,15.7Zm-27.02-15.87l27.02,15.6,27.02-15.6v-31.2l-27.02-15.6-27.02,15.6v31.2Z"/><polygon class="e" points="407.85 143.28 390.79 133.43 390.79 102.24 407.85 92.39 407.85 92.12 390.62 102.07 390.56 102.1 390.56 133.57 407.85 143.56 407.85 143.28"/><path class="e" d="M336.41,290.3l-.06-.03-27.19-15.7v-31.47l.06-.03,27.19-15.7,.06,.03,27.19,15.7v31.47l-.06,.03-27.19,15.7Zm-27.02-15.87l27.02,15.6,27.02-15.6v-31.2l-27.02-15.6-27.02,15.6v31.2Z"/><polygon class="e" points="407.85 280.11 390.68 290.03 363.66 274.43 363.66 243.23 390.68 227.63 407.85 237.55 407.85 237.28 390.74 227.4 390.68 227.36 363.48 243.06 363.43 243.1 363.43 274.56 390.62 290.26 390.68 290.3 407.85 280.38 407.85 280.11"/><polygon class="e" points="336.53 299.28 336.53 290.23 363.54 274.63 390.56 290.23 390.56 299.28 390.79 299.28 390.79 290.09 363.6 274.39 363.54 274.36 336.35 290.06 336.29 290.09 336.29 299.28 336.53 299.28"/><polygon class="e" points="407.85 280.11 390.62 290.06 390.56 290.09 390.56 299.28 390.79 299.28 390.79 290.23 407.85 280.38 407.85 280.11"/></g><g><polygon class="e" points="371.69 -34.72 371.69 -2.79 336.94 17.27 302.2 -2.79 302.2 -34.72 300.97 -34.72 300.97 -2.08 336.94 18.69 372.92 -2.08 372.92 -34.72 371.69 -34.72"/><polygon class="e" points="372.92 -2.79 372.92 -34.72 371.69 -34.72 371.69 -2.08 407.67 18.69 407.85 18.58 407.85 17.17 407.67 17.27 372.92 -2.79"/><path class="e" d="M407.85,139.88l-35.55-20.52-35.98,20.77v41.54l35.98,20.77,35.55-20.52v-42.04Zm-35.55,61.15l-34.75-20.06v-40.13l34.75-20.06,34.75,20.06v40.13l-34.75,20.06Z"/><path class="e" d="M336.94,263.7l-35.98-20.77v-41.54l35.98-20.77,35.98,20.77v41.54l-35.98,20.77Zm-34.75-21.48l34.75,20.06,34.75-20.06v-40.13l-34.75-20.06-34.75,20.06v40.13Z"/><polygon class="e" points="407.85 262.17 407.67 262.28 372.92 242.22 372.92 202.09 407.67 182.03 407.85 182.13 407.85 180.72 407.67 180.61 371.69 201.38 371.69 242.92 407.67 263.7 407.85 263.59 407.85 262.17"/><polygon class="e" points="196.1 299.28 196.1 263.34 230.85 243.28 265.6 263.34 265.6 299.28 266.83 299.28 266.83 262.63 230.85 241.86 194.88 262.63 194.88 299.28 196.1 299.28"/><polygon class="e" points="266.83 299.28 266.83 263.34 301.58 243.28 336.33 263.34 336.33 299.28 337.56 299.28 337.56 262.63 301.58 241.86 265.6 262.63 265.6 299.28 266.83 299.28"/><polygon class="e" points="407.85 299.28 407.85 262.38 372.31 241.86 336.33 262.63 336.33 299.28 337.56 299.28 337.56 263.34 372.31 243.28 407.06 263.34 407.06 299.28 407.85 299.28"/></g><g><circle class="e" cx="282.14" cy="8.17" r="1.69"/><path class="e" d="M390.68,11.1c1.62,0,2.93-1.31,2.93-2.93s-1.31-2.93-2.93-2.93-2.93,1.31-2.93,2.93,1.31,2.93,2.93,2.93Z"/><path class="e" d="M230.12,8.17c0-1.24-1.01-2.25-2.25-2.25s-2.25,1.01-2.25,2.25,1.01,2.25,2.25,2.25,2.25-1.01,2.25-2.25Z"/><circle class="e" cx="336.41" cy="8.17" r="1.95"/><path class="e" d="M390.68,36.99c-1.39,0-2.51,1.12-2.51,2.51s1.12,2.51,2.51,2.51,2.51-1.12,2.51-2.51-1.12-2.51-2.51-2.51Z"/><circle class="e" cx="282.14" cy="39.51" r="2.9"/><path class="e" d="M306.26,55.17c0,1.66,1.35,3.01,3.01,3.01s3.01-1.35,3.01-3.01-1.35-3.01-3.01-3.01-3.01,1.35-3.01,3.01Z"/><circle class="e" cx="336.41" cy="102.17" r="1.82"/><path class="e" d="M309.27,84.13c-1.31,0-2.37,1.06-2.37,2.37s1.06,2.37,2.37,2.37,2.37-1.06,2.37-2.37-1.06-2.37-2.37-2.37Z"/><circle class="e" cx="336.41" cy="39.51" r="2.53"/><circle class="e" cx="363.54" cy="86.5" r="3.59"/><path class="e" d="M390.68,104.2c1.12,0,2.03-.91,2.03-2.03s-.91-2.03-2.03-2.03-2.03,.91-2.03,2.03,.91,2.03,2.03,2.03Z"/><path class="e" d="M363.54,58.73c1.96,0,3.55-1.59,3.55-3.55s-1.59-3.55-3.55-3.55-3.55,1.59-3.55,3.55,1.59,3.55,3.55,3.55Z"/><path class="e" d="M336.41,194.49c-.92,0-1.67,.75-1.67,1.67s.75,1.67,1.67,1.67,1.67-.75,1.67-1.67-.75-1.67-1.67-1.67Z"/><circle class="e" cx="336.41" cy="133.5" r="1.95"/><circle class="e" cx="363.54" cy="149.17" r="3.82"/><path class="e" d="M390.68,135.58c1.15,0,2.07-.93,2.07-2.07s-.93-2.07-2.07-2.07-2.07,.93-2.07,2.07,.93,2.07,2.07,2.07Z"/><path class="e" d="M338.66,227.5c0-1.24-1.01-2.25-2.25-2.25s-2.25,1.01-2.25,2.25,1.01,2.25,2.25,2.25,2.25-1.01,2.25-2.25Z"/><path class="e" d="M390.68,199.1c1.62,0,2.93-1.31,2.93-2.93s-1.31-2.93-2.93-2.93-2.93,1.31-2.93,2.93,1.31,2.93,2.93,2.93Z"/><path class="e" d="M390.68,224.57c-1.62,0-2.93,1.31-2.93,2.93s1.31,2.93,2.93,2.93,2.93-1.31,2.93-2.93-1.31-2.93-2.93-2.93Z"/><path class="e" d="M309.27,245.49c1.29,0,2.33-1.04,2.33-2.33s-1.04-2.33-2.33-2.33-2.33,1.04-2.33,2.33,1.04,2.33,2.33,2.33Z"/><circle class="e" cx="363.54" cy="243.16" r="2.58"/><path class="e" d="M309.27,271.89c-1.44,0-2.61,1.17-2.61,2.61s1.17,2.61,2.61,2.61,2.61-1.17,2.61-2.61-1.17-2.61-2.61-2.61Z"/><path class="e" d="M363.54,271.78c-1.5,0-2.71,1.21-2.71,2.71s1.21,2.71,2.71,2.71,2.71-1.21,2.71-2.71-1.21-2.71-2.71-2.71Z"/><path class="e" d="M390.68,286.95c-1.77,0-3.21,1.44-3.21,3.21s1.44,3.21,3.21,3.21,3.21-1.44,3.21-3.21-1.44-3.21-3.21-3.21Z"/></g></g></g></g></g></g></g></svg>